<svg width="240" height="42" viewBox="0 0 240 42" fill="none" xmlns="http://www.w3.org/2000/svg">
<path d="M48.5394 0C49.8222 0.231724 51.134 0.362069 52.3876 0.767586C61.0168 3.59172 66.2643 9.39931 67.5179 18.3641C69.1213 29.791 61.1917 39.5814 50.6967 41.7103C50.1283 41.8262 49.5598 41.9131 48.9767 42.0145C38.919 42.0145 28.8613 42.0145 18.8036 42.0145C18.7161 41.9855 18.6141 41.9421 18.5266 41.9276C9.54755 40.7545 2.39053 34.1938 0.495598 25.4317C0.233222 24.2586 0.16034 23.0566 0 21.869C0 21.2897 0 20.7103 0 20.131C0.0874584 19.291 0.131188 18.451 0.291528 17.6255C1.7929 9.90621 6.1804 4.47517 13.4832 1.40483C15.3198 0.637241 17.273 0.289655 19.2409 0C29.007 0 38.7732 0 48.5394 0ZM33.8756 34.1359C42.155 34.1359 50.4344 34.1359 58.7138 34.1359C59.7195 34.1359 59.7195 34.1359 59.7195 33.151C59.7195 25.0407 59.7195 16.9303 59.7195 8.83448C59.7195 7.86414 59.7195 7.86414 58.6992 7.86414C42.155 7.86414 25.6253 7.86414 9.0811 7.86414C8.0316 7.86414 8.01702 7.86414 8.01702 8.87793C8.01702 16.9593 8.01702 25.0407 8.01702 33.1221C8.01702 34.1359 8.01702 34.1359 9.00822 34.1359C17.3022 34.1503 25.5962 34.1359 33.8756 34.1359Z" fill="white"/>
<path d="M239.782 27.2276C239.126 29.5738 237.464 30.8483 235.161 31.3552C232.596 31.9345 230.045 31.8331 227.669 30.5731C226.036 29.7187 225.074 28.3718 224.768 26.5614C224.666 25.9966 224.797 25.678 225.453 25.7214C226.226 25.7649 227.013 25.7359 227.785 25.7214C228.179 25.7069 228.412 25.8373 228.5 26.2573C228.616 26.88 229.01 27.3435 229.491 27.7345C230.832 28.8787 233.835 28.9945 235.263 27.9662C235.832 27.5607 236.167 27.0249 236.079 26.3007C235.992 25.5042 235.467 25.0552 234.753 24.838C233.543 24.4759 232.275 24.418 231.021 24.2297C230.059 24.0849 229.097 23.9256 228.194 23.5925C226.707 23.0566 225.526 22.2021 225.176 20.5511C224.783 18.6828 225.322 17.1042 226.721 15.8442C227.975 14.7145 229.52 14.2221 231.182 14.1497C232.771 14.0773 234.33 14.1207 235.832 14.7435C237.785 15.54 239.097 16.8725 239.461 19.0014C239.563 19.5662 239.374 19.7545 238.834 19.74C238.397 19.7256 237.96 19.7111 237.522 19.74C236.56 19.8125 235.715 19.8269 235.409 18.6104C235.292 18.1469 234.782 17.8138 234.316 17.5821C232.843 16.8725 231.357 16.9159 229.884 17.5531C229.083 17.9007 228.675 18.6249 228.762 19.3345C228.864 20.16 229.462 20.5366 230.191 20.6814C231.648 20.9421 233.106 21.1304 234.563 21.3621C235.059 21.449 235.569 21.5504 236.05 21.6952C237.96 22.2311 239.359 23.2738 239.767 25.3304C239.782 25.9676 239.782 26.6049 239.782 27.2276Z" fill="white"/>
<path d="M84.1058 23.7083C84.1787 23.7083 84.2516 23.7083 84.3245 23.7083C84.8347 23.7228 85.3886 23.6214 85.8404 23.7952C86.3943 23.998 86.1757 24.6786 86.3652 25.1421C87.1232 26.9814 88.5808 27.9228 90.4757 28.1835C91.6564 28.3428 92.8517 28.3283 94.0032 27.9083C95.767 27.2711 96.627 25.7793 96.1605 24.1862C95.8253 23.0566 94.8924 22.5786 93.8866 22.2455C92.3415 21.7386 90.7235 21.5504 89.1347 21.1883C87.575 20.8407 86.0154 20.4352 84.7181 19.4359C81.7007 17.1186 82.0214 12.0062 85.1116 9.70347C86.6567 8.55934 88.4059 8.00899 90.33 7.93658C92.2249 7.86416 94.0615 8.06692 95.767 8.95037C97.9534 10.0655 99.3528 11.7745 99.8338 14.1931C100.023 15.149 99.9212 15.2649 98.9883 15.2649C98.1866 15.2649 97.3849 15.2504 96.5832 15.2649C96.1897 15.2649 95.9856 15.1635 95.869 14.729C95.3005 12.6145 93.6388 11.369 91.4524 11.34C90.4757 11.3255 89.5137 11.3545 88.5954 11.76C87.3855 12.2959 86.613 13.3531 86.6567 14.5697C86.7004 15.8442 87.4876 16.5828 88.6245 17.0028C90.1113 17.5676 91.6856 17.7414 93.2307 18.06C94.3093 18.2773 95.3588 18.5524 96.3792 18.9435C100.402 20.4642 101.058 24.0704 99.8046 27.1552C99.1341 28.7918 97.9243 29.9793 96.3063 30.689C92.8808 32.1807 89.4554 32.1083 86.1465 30.3849C83.9747 29.2552 82.6919 27.4159 82.2546 24.9973C82.0506 23.8242 82.1235 23.7083 83.3333 23.7228C83.5811 23.7083 83.8435 23.7083 84.1058 23.7083Z" fill="white"/>
<path d="M145.298 16.3365C145.298 14.2221 145.298 12.1945 145.298 10.1814C145.298 8.08137 145.298 8.06689 147.397 8.08137C149.335 8.09585 149.131 7.82068 149.131 9.8193C149.131 16.6696 149.131 23.52 149.131 30.3703C149.131 31.471 149.131 31.471 147.994 31.4855C147.601 31.4855 147.222 31.4855 146.828 31.4855C145.735 31.4855 145.735 31.4855 145.575 30.3848C145.516 30.0372 145.443 29.6896 145.37 29.2262C144.977 29.5883 144.656 29.8924 144.321 30.1965C141.581 32.5717 135.969 32.1517 133.403 28.6469C130.969 25.3303 131.202 19.8124 133.884 16.7131C136.581 13.5993 142.207 13.2227 144.991 16.1048C145.05 16.1627 145.137 16.2062 145.298 16.3365ZM145.298 22.8827C145.356 21.9559 145.181 21 144.758 20.1165C144.029 18.5959 142.849 17.611 141.143 17.4372C139.234 17.2345 137.645 17.8138 136.566 19.4793C135.284 21.4634 135.298 24.5048 136.639 26.489C138.403 29.1103 142.484 29.1393 144.306 26.5614C145.05 25.4607 145.356 24.2441 145.298 22.8827Z" fill="white"/>
<path d="M179.552 19.7545C179.552 16.2062 179.552 12.6579 179.552 9.10963C179.552 8.08136 179.552 8.08136 180.616 8.08136C183.342 8.08136 186.053 8.05239 188.779 8.09584C191.344 8.13929 193.677 8.77653 195.411 10.8331C196.402 12.0062 196.883 13.3676 196.971 14.8738C197.088 16.6986 196.84 18.451 195.732 19.9717C194.187 22.1007 191.986 22.9696 189.45 23.071C187.759 23.1434 186.053 23.1 184.348 23.071C183.75 23.0565 183.546 23.2448 183.561 23.8531C183.59 26.1269 183.561 28.3862 183.59 30.66C183.604 31.2827 183.4 31.529 182.759 31.5C181.986 31.4565 181.199 31.4565 180.427 31.5C179.756 31.5434 179.538 31.2972 179.552 30.631C179.552 26.9958 179.552 23.3752 179.552 19.7545ZM183.561 15.5689C183.561 16.6841 183.575 17.7848 183.561 18.9C183.546 19.3634 183.736 19.5517 184.202 19.5372C185.893 19.5227 187.598 19.5662 189.289 19.4938C191.33 19.4069 192.802 17.8572 192.933 15.7717C193.05 13.802 191.811 12.1365 189.872 11.7889C187.934 11.4414 185.951 11.702 183.998 11.6441C183.575 11.6296 183.575 11.9483 183.575 12.2524C183.575 13.3531 183.561 14.4683 183.561 15.5689Z" fill="white"/>
<path d="M128.753 23.3607C128.753 24.5193 128.753 25.678 128.753 26.8366C128.753 27.7924 129.016 28.1111 129.978 28.169C130.444 28.198 130.634 28.3862 130.619 28.8352C130.605 29.5159 130.619 30.1821 130.619 30.8628C130.619 31.1814 130.546 31.4566 130.153 31.4566C129.234 31.4421 128.316 31.558 127.398 31.3697C126.407 31.1525 125.721 30.6166 125.488 29.6173C125.386 29.1973 125.24 29.1973 124.978 29.4869C122.646 32.0214 119.76 32.0938 116.742 31.1669C114.643 30.5297 113.448 28.8931 113.39 26.8076C113.346 24.6642 114.177 22.9552 116.203 21.9704C117.384 21.3911 118.637 21.1449 119.935 21.1159C121.363 21.0869 122.806 21.0724 124.235 21.1159C124.905 21.1304 125.066 20.8842 125.036 20.2759C124.978 18.8566 124.264 17.8138 122.879 17.4518C121.553 17.1042 120.241 17.1187 118.987 17.7993C118.39 18.1324 117.967 18.6104 117.748 19.2621C117.632 19.6242 117.413 19.7545 117.048 19.74C116.247 19.7256 115.445 19.7256 114.643 19.74C114.031 19.7545 113.885 19.4793 114.002 18.929C114.483 16.6987 115.941 15.3373 118.025 14.6566C120.328 13.9035 122.66 13.889 124.963 14.6711C127.31 15.4676 128.695 17.4083 128.753 19.8849C128.768 21.0435 128.753 22.2021 128.753 23.3607ZM120.226 28.6614C123.098 28.6469 124.628 27.3435 124.993 24.7511C125.066 24.1718 124.934 23.9111 124.278 23.9256C122.952 23.969 121.611 23.94 120.284 23.94C119.643 23.94 119.031 24.0993 118.462 24.3745C116.946 25.1276 116.83 27.1842 118.229 28.1256C118.885 28.5745 119.614 28.6904 120.226 28.6614Z" fill="white"/>
<path d="M167.716 14.1497C172.235 14.1497 175.5 16.6407 176.302 20.9276C176.958 24.4035 176.258 27.5752 173.343 29.9214C171.579 31.3407 169.494 31.7462 167.264 31.6593C166.229 31.6159 165.238 31.471 164.276 31.1235C162.133 30.3559 160.559 28.9366 159.685 26.851C158.664 24.4179 158.606 21.9269 159.51 19.4504C160.749 16.0614 163.766 14.1497 167.716 14.1497ZM162.862 22.9552C162.818 23.52 162.891 24.0848 163.037 24.6497C163.606 26.9235 165.311 28.2848 167.527 28.3862C170.354 28.5166 171.9 26.6483 172.395 24.7655C172.672 23.7517 172.687 22.7379 172.555 21.6952C172.279 19.6097 170.719 17.8572 168.707 17.4662C166.506 17.0462 164.48 18.0021 163.474 19.9862C162.993 20.9131 162.804 21.8979 162.862 22.9552Z" fill="white"/>
<path d="M218.252 29.5013C217.203 30.6165 216.037 31.3117 214.638 31.5434C211.562 32.0358 208.603 31.2248 207.145 28.4296C206.475 27.1406 206.256 25.7213 206.242 24.302C206.198 21.2607 206.241 18.2193 206.212 15.1779C206.212 14.5117 206.431 14.2655 207.102 14.3089C207.801 14.3524 208.515 14.3524 209.215 14.3089C209.871 14.2655 210.104 14.5117 210.104 15.1779C210.075 18.0455 210.104 20.9131 210.09 23.7951C210.09 24.3744 210.148 24.9538 210.294 25.5186C210.673 27.0248 211.547 28.0675 213.151 28.3427C214.842 28.6469 216.43 27.9517 217.29 26.5469C217.873 25.6055 218.15 24.5482 218.165 23.4475C218.18 20.7248 218.194 18.002 218.165 15.2648C218.15 14.5551 218.354 14.251 219.112 14.3089C219.812 14.3669 220.526 14.3524 221.226 14.3089C221.882 14.2655 222.057 14.5551 222.057 15.1634C222.028 17.4517 222.042 19.74 222.042 22.0427C222.042 24.8958 222.028 27.7344 222.057 30.5875C222.057 31.2537 221.882 31.5724 221.153 31.5144C220.526 31.471 219.885 31.4855 219.258 31.5144C218.806 31.5289 218.588 31.3262 218.515 30.9062C218.442 30.4572 218.354 30.0372 218.252 29.5013Z" fill="white"/>
<path d="M104.192 22.7669C104.192 21.3186 104.178 19.8703 104.207 18.422C104.221 17.9007 104.046 17.6689 103.492 17.6979C102.953 17.7269 102.428 17.6979 101.889 17.6979C101.466 17.6979 101.262 17.5386 101.262 17.1041C101.277 16.38 101.277 15.6558 101.262 14.9317C101.248 14.4538 101.481 14.2945 101.933 14.2945C102.399 14.3089 102.866 14.251 103.318 14.3089C104.046 14.3814 104.236 14.0772 104.207 13.3965C104.163 12.4117 104.221 11.4124 104.192 10.4276C104.178 9.81929 104.411 9.61653 105.008 9.6455C105.781 9.67446 106.568 9.68895 107.341 9.6455C107.938 9.61653 108.099 9.86274 108.084 10.4131C108.055 11.4993 108.099 12.5855 108.069 13.6717C108.055 14.1496 108.244 14.3234 108.711 14.3089C109.615 14.2945 110.504 14.3234 111.407 14.2945C111.976 14.28 112.195 14.5117 112.165 15.062C112.136 15.7138 112.136 16.3655 112.165 17.0172C112.18 17.5096 111.976 17.7124 111.48 17.7124C110.562 17.6979 109.629 17.7269 108.711 17.6979C108.23 17.6834 108.069 17.8717 108.069 18.3352C108.084 21.0869 108.069 23.8386 108.084 26.5903C108.084 27.6331 108.521 28.0386 109.556 28.0676C110.314 28.0821 111.058 28.0965 111.816 28.0676C112.355 28.0531 112.632 28.2414 112.603 28.8207C112.574 29.5014 112.588 30.1676 112.588 30.8483C112.588 31.1524 112.544 31.4565 112.136 31.4565C110.649 31.4421 109.163 31.6158 107.705 31.3696C105.358 30.9786 104.265 29.5738 104.221 27.0248C104.163 25.62 104.192 24.1862 104.192 22.7669Z" fill="white"/>
<path d="M199.376 19.769C199.376 16.2497 199.376 12.7303 199.376 9.21103C199.376 8.06689 199.376 8.06689 200.557 8.06689C201.242 8.06689 201.912 8.08138 202.597 8.06689C203.02 8.06689 203.224 8.25517 203.224 8.67517C203.224 8.84896 203.224 9.00827 203.224 9.18207C203.224 16.2497 203.224 23.3028 203.224 30.3703C203.224 31.4565 203.224 31.471 202.146 31.471C201.519 31.471 200.877 31.4421 200.251 31.4855C199.595 31.529 199.347 31.2972 199.361 30.631C199.391 28.8207 199.376 27.0103 199.376 25.2C199.361 23.3896 199.376 21.5793 199.376 19.769Z" fill="white"/>
<path d="M152.425 22.8103C152.425 20.2468 152.44 17.6979 152.411 15.1344C152.411 14.5117 152.6 14.251 153.242 14.2944C153.985 14.3379 154.743 14.3234 155.501 14.2944C156.055 14.2655 156.303 14.4827 156.288 15.0475C156.259 15.8151 156.288 16.5972 156.288 17.3648C156.288 21.7241 156.288 26.0979 156.288 30.4572C156.288 31.4565 156.274 31.471 155.268 31.471C154.612 31.471 153.956 31.442 153.3 31.4855C152.644 31.5289 152.411 31.2972 152.411 30.631C152.44 28.0241 152.425 25.4172 152.425 22.8103Z" fill="white"/>
<path d="M156.594 9.80488C156.594 11.1373 155.647 12.0642 154.306 12.0642C153.023 12.0642 151.974 11.0214 152.003 9.77592C152.017 8.54488 153.052 7.54557 154.306 7.54557C155.632 7.53109 156.594 8.48695 156.594 9.80488Z" fill="white"/>
</svg>
